HIERARCHY
ROOT Hips
{
	OFFSET	0.00	0.00	0.00
	CHANNELS 6 Xposition Yposition Zposition Zrotation Xrotation Yrotation
	JOINT LeftUpLeg
	{
		OFFSET	 0.126116	-0.014019	-0.065224
		CHANNELS 3 Zrotation Xrotation Yrotation
		JOINT LeftLeg
		{
			OFFSET	 0.000000	 0.000000	 0.569914
			CHANNELS 3 Zrotation Xrotation Yrotation
			JOINT LeftFoot
			{
				OFFSET	 0.000000	 0.000000	 0.544423
				CHANNELS 3 Zrotation Xrotation Yrotation
				JOINT LeftToeBase
				{
					OFFSET	 0.000000	 0.000000	 0.207117
					CHANNELS 3 Zrotation Xrotation Yrotation
					End Site
					{
						OFFSET	 0.000000	 0.000000	 0.207117
					}
				}
			}
		}
	}
	JOINT RightUpLeg
	{
		OFFSET	-0.124023	-0.008373	-0.065224
		CHANNELS 3 Zrotation Xrotation Yrotation
		JOINT RightLeg
		{
			OFFSET	 0.000000	 0.000000	 0.570047
			CHANNELS 3 Zrotation Xrotation Yrotation
			JOINT RightFoot
			{
				OFFSET	 0.000000	 0.000000	 0.544354
				CHANNELS 3 Zrotation Xrotation Yrotation
				JOINT RightToeBase
				{
					OFFSET	 0.000000	 0.000000	 0.207540
					CHANNELS 3 Zrotation Xrotation Yrotation
					End Site
					{
						OFFSET	 0.000000	 0.000000	 0.207540
					}
				}
			}
		}
	}
	JOINT Spine
	{
		OFFSET	 0.000184	-0.007763	 0.117403
		CHANNELS 3 Zrotation Xrotation Yrotation
		JOINT Spine1
		{
			OFFSET	 0.000000	 0.000000	 0.137269
			CHANNELS 3 Zrotation Xrotation Yrotation
			JOINT Spine2
			{
				OFFSET	 0.000000	 0.000000	 0.156879
				CHANNELS 3 Zrotation Xrotation Yrotation
				JOINT LeftShoulder
				{
					OFFSET	 0.080501	-0.002496	 0.160144
					CHANNELS 3 Zrotation Xrotation Yrotation
					JOINT LeftArm
					{
						OFFSET	 0.000000	 0.000000	 0.164363
						CHANNELS 3 Zrotation Xrotation Yrotation
						JOINT LeftForeArm
						{
							OFFSET	 0.000000	 0.000000	 0.364576
							CHANNELS 3 Zrotation Xrotation Yrotation
							JOINT LeftHand
							{
								OFFSET	 0.000000	 0.000000	 0.360812
								CHANNELS 3 Zrotation Xrotation Yrotation
								JOINT LeftHandIndex1
								{
									OFFSET	 0.000000	 0.000000	 0.086006
									CHANNELS 3 Zrotation Xrotation Yrotation
									JOINT LeftHandIndex2
									{
										OFFSET	 0.000000	 0.000000	 0.047236
										CHANNELS 3 Zrotation Xrotation Yrotation
										JOINT LeftHandIndex3
										{
											OFFSET	-0.004284	-0.000551	 0.038166
											CHANNELS 3 Zrotation Xrotation Yrotation
											End Site
											{
												OFFSET	-0.004284	-0.000551	 0.038166
											}
										}
									}
								}
							}
						}
					}
				}
				JOINT Neck
				{
					OFFSET	 0.000000	 0.000000	 0.176489
					CHANNELS 3 Zrotation Xrotation Yrotation
					JOINT Head
					{
						OFFSET	 0.000000	-0.001747	 0.077940
						CHANNELS 3 Zrotation Xrotation Yrotation
						End Site
						{
							OFFSET	 0.000000	-0.001747	 0.077940
						}
					}
				}
				JOINT RightShoulder
				{
					OFFSET	-0.080363	 0.000306	 0.159706
					CHANNELS 3 Zrotation Xrotation Yrotation
					JOINT RightArm
					{
						OFFSET	 0.000000	 0.000000	 0.164196
						CHANNELS 3 Zrotation Xrotation Yrotation
						JOINT RightForeArm
						{
							OFFSET	 0.000000	 0.000000	 0.365611
							CHANNELS 3 Zrotation Xrotation Yrotation
							JOINT RightHand
							{
								OFFSET	 0.000000	 0.000000	 0.360648
								CHANNELS 3 Zrotation Xrotation Yrotation
								JOINT RightHandIndex1
								{
									OFFSET	 0.000000	 0.000000	 0.069977
									CHANNELS 3 Zrotation Xrotation Yrotation
									JOINT RightHandIndex2
									{
										OFFSET	 0.000000	 0.000000	 0.052305
										CHANNELS 3 Zrotation Xrotation Yrotation
										JOINT RightHandIndex3
										{
											OFFSET	 0.009002	-0.000782	 0.042196
											CHANNELS 3 Zrotation Xrotation Yrotation
											End Site
											{
												OFFSET	 0.009002	-0.000782	 0.042196
											}
										}
									}
								}
							}
						}
					}
				}
			}
		}
	}
}
MOTION
Frames:    8
Frame Time: 0.03333334
 0.012198	 0.064356	 1.202232	 4.121004	-1.817462	-3.598222	 12.316680	-10.764670	-173.717500	 0.316106	-38.891140	-0.029619	 55.968110	 81.676030	-59.366710	-2.371277	 31.297080	-0.062741	-14.647250	-29.979870	-174.500200	 10.182930	-52.979450	 8.755329	 7.667368	 70.522080	-1.832899	 2.357863	 33.162030	 0.106994	 0.786042	 8.936669	 1.041741	 1.425422	 3.275682	 2.811149	-7.768445	-2.771520	-3.659304	-93.772750	 58.848630	 175.755100	 10.942600	 29.025460	-45.930230	-0.753109	-0.050016	-0.624518	-1.007672	-19.060490	-6.281715	-4.870920	 19.205100	-2.784663	-3.886581	 21.408140	 2.207884	-4.808086	 5.547583	 0.146850	-0.125926	-5.015422	 0.158652	-9.846007	 1.826160	 2.305184	 89.832050	 61.581970	-179.881200	-20.210650	 51.740980	 9.638851	-0.804273	-2.558777	 14.155830	-4.640289	-5.160214	 0.791430	 6.304368	 25.984210	-0.577074	 1.729217	 45.933210	-6.853322	 0.352780	 25.032030	 3.657132
 0.010615	 0.030843	 1.200109	 4.743363	-1.516606	-3.589119	 11.662030	-9.323144	-174.252000	 0.731842	-38.650930	 0.236797	 63.456770	 82.806720	-67.105520	-2.370213	 31.477830	-0.066826	-16.440500	-32.646050	-175.444300	 10.046920	-49.463890	 8.252844	 5.634220	 71.376510	 0.093238	 2.358498	 33.069160	 0.104830	-3.536631	 8.794722	 0.986440	 1.323349	 3.384156	 2.791916	-7.869354	-2.922547	-3.637993	-93.888440	 58.914910	 175.501000	 9.815819	 26.992570	-46.304050	-3.812067	 0.038386	-1.762786	-2.446824	-20.518410	-7.883577	-4.870428	 19.229080	-2.788569	-3.881528	 21.472750	 2.202755	-4.806921	 5.561259	 0.146049	-0.091466	-5.056558	 0.176211	-9.818552	 1.802262	 2.156632	 89.795780	 61.627020	-179.967300	-20.175730	 52.897780	 7.386170	 1.384566	-2.180973	 16.988060	-3.391867	-6.272999	 0.791967	 6.296453	 25.164430	-0.552007	 1.843339	 45.039240	-6.955495	 0.481743	 24.471160	 3.590902
 0.008875	-0.006420	 1.197716	 5.265657	-1.207885	-3.594523	 11.021670	-7.492985	-174.843200	 1.050182	-38.003510	 0.429448	 73.031260	 83.833850	-76.830570	-2.369316	 31.628890	-0.070240	-18.085790	-34.531980	-176.615200	 9.582217	-43.928910	 7.214170	 2.307920	 70.100080	 3.406135	 2.358923	 33.006970	 0.103388	-7.056094	 8.625526	 0.939267	 1.192618	 3.596764	 2.760993	-7.961412	-3.114446	-3.623343	-93.993800	 58.962200	 175.270500	 8.458954	 24.869170	-46.680560	-6.202780	 0.180353	-2.679852	-3.619662	-21.664090	-9.181047	-4.868974	 19.273330	-2.792936	-3.876512	 21.536940	 2.197661	-4.805784	 5.574744	 0.145256	-0.063029	-5.087406	 0.196842	-9.802547	 1.782408	 2.042055	 89.760340	 61.678260	 179.948000	-20.116460	 54.050540	 5.470144	 3.037988	-1.659009	 18.559590	-2.439679	-7.135447	 0.804286	 6.288497	 24.418980	-0.539491	 1.940552	 44.251750	-7.042123	 0.612068	 23.898560	 3.525016
 0.006831	-0.046591	 1.194502	 5.740915	-0.771313	-3.623014	 10.409890	-5.494248	-175.451700	 1.233136	-37.047630	 0.530457	 84.628230	 84.665420	-88.475590	-2.368488	 31.764650	-0.073325	-19.896970	-35.526180	-178.068000	 9.188298	-36.440700	 5.946595	-1.367611	 68.032060	 6.940252	 2.359010	 32.994270	 0.103088	-10.442290	 8.330521	 0.874668	 1.040302	 3.807642	 2.774587	-8.058202	-3.316508	-3.636762	-94.113160	 58.981510	 175.013600	 7.029960	 22.795000	-46.990070	-8.333673	 0.381808	-3.576978	-4.595033	-22.839560	-10.181250	-4.864779	 19.380680	-2.799984	-3.869766	 21.623020	 2.190801	-4.804263	 5.592650	 0.144208	-0.038491	-5.105319	 0.231979	-9.807320	 1.765335	 1.965107	 89.714000	 61.762070	 179.836900	-19.932200	 55.152890	 3.894513	 4.472417	-1.006573	 19.070410	-1.609795	-7.960811	 0.804304	 6.276724	 23.581220	-0.551207	 2.038613	 43.432210	-7.129109	 0.792866	 23.094440	 3.435401
 0.004796	-0.081525	 1.190653	 6.120384	-0.370371	-3.695467	 9.935224	-3.725779	-175.948500	 1.380333	-36.125470	 0.605879	 96.973980	 85.207810	-100.861600	-2.367579	 31.913210	-0.076701	-21.355520	-35.804330	-179.344200	 8.986058	-29.623950	 4.851850	-3.525889	 66.721390	 8.701046	 2.359410	 32.934630	 0.101709	-13.415270	 8.041215	 0.854666	 0.912629	 3.929060	 2.794585	-8.139431	-3.456762	-3.649454	-94.219380	 58.993280	 174.785400	 5.948333	 21.247340	-47.196220	-10.328640	 0.617655	-4.378577	-5.571449	-23.915800	-10.958620	-4.859629	 19.505700	-2.806870	-3.862742	 21.712340	 2.183671	-4.801837	 5.621204	 0.142539	-0.019433	-5.127162	 0.264445	-9.817780	 1.748219	 1.908633	 89.664170	 61.839670	 179.716800	-19.629420	 55.955550	 2.783188	 5.675564	-0.374324	 19.012750	-0.930611	-8.667648	 0.731590	 6.264343	 22.757190	-0.568259	 2.126594	 42.674700	-7.206781	 0.972740	 22.283260	 3.348330
 0.002564	-0.115659	 1.185107	 6.351557	 0.056890	-3.907792	 9.668587	-1.970762	-176.322900	 1.480416	-35.266210	 0.651172	 112.483300	 85.485170	-116.390000	-2.366167	 32.140320	-0.081878	-22.273000	-36.925590	 179.570300	 9.152462	-24.973640	 4.218776	-4.684932	 65.771460	 9.267192	 2.360779	 32.730650	 0.096981	-16.394250	 7.678877	 0.966874	 0.811764	 4.088559	 2.820828	-8.208694	-3.585100	-3.670856	-94.321820	 58.987630	 174.567700	 5.044767	 20.024190	-47.418910	-12.705980	 0.929057	-5.231698	-6.775486	-25.225090	-11.291620	-4.850387	 19.715410	-2.815372	-3.852936	 21.836860	 2.173698	-4.796251	 5.686934	 0.138681	-0.009556	-5.166143	 0.299217	-9.846433	 1.725849	 1.890551	 89.589920	 61.923380	 179.537200	-19.166740	 56.606160	 1.692747	 6.756839	 0.254662	 19.125410	-0.410132	-9.372406	 0.406448	 6.246548	 21.726620	-0.604410	 2.218384	 41.860830	-7.287443	 1.206309	 21.213540	 3.238471
 0.000165	-0.145917	 1.178710	 6.517815	 0.380504	-4.094226	 9.449841	-0.344102	-176.699900	 1.557900	-34.578990	 0.684060	 127.532200	 85.479520	-131.439500	-2.364191	 32.451470	-0.089006	-22.726090	-39.001320	 178.667500	 9.399740	-23.122310	 4.006783	-5.113492	 66.975830	 9.152312	 2.360147	 32.826080	 0.099182	-18.932400	 7.371082	 1.073581	 0.732796	 4.287767	 2.832742	-8.258213	-3.706334	-3.682627	-94.400340	 58.980460	 174.401600	 4.295603	 19.141460	-47.667250	-14.765100	 1.249838	-5.967985	-7.896659	-26.250960	-11.606030	-4.841374	 19.909800	-2.821016	-3.843088	 21.961450	 2.163703	-4.789054	 5.771644	 0.133701	 0.001146	-5.205420	 0.324596	-9.862202	 1.701048	 1.865702	 89.527190	 61.987700	 179.384600	-18.639950	 57.108640	 0.595611	 7.649248	 0.809157	 19.428280	 0.028097	-10.005680	 0.044180	 6.228689	 20.738780	-0.640966	 2.320096	 40.930040	-7.376334	 1.423120	 20.204060	 3.139807
-0.002718	-0.179958	 1.170992	 6.589978	 0.584786	-4.285207	 9.269295	 1.755375	-177.171500	 1.609051	-33.573650	 0.694835	 141.613600	 85.403220	-145.478000	-2.360196	 33.055930	-0.102958	-22.576110	-41.601850	 177.959100	 9.380206	-22.617810	 3.933962	-4.560087	 71.441220	 8.001153	 2.354682	 33.616290	 0.117612	-21.584620	 7.081750	 1.212800	 0.653843	 4.613264	 2.787051	-8.279406	-3.841819	-3.660938	-94.452790	 58.967080	 174.292000	 3.456200	 18.433270	-47.935840	-16.927250	 1.644406	-6.746280	-9.227284	-27.097970	-11.943700	-4.829804	 20.137580	-2.822253	-3.829773	 22.129250	 2.150175	-4.775769	 5.927605	 0.124512	 0.017331	-5.258937	 0.337999	-9.854996	 1.662029	 1.818009	 89.467550	 62.031340	 179.239500	-17.870280	 57.552100	-0.685752	 8.508917	 1.415459	 19.789760	 0.472898	-10.774220	-0.537556	 6.204918	 19.503850	-0.690976	 2.478281	 39.419030	-7.513514	 1.681823	 18.979200	 3.026386
